<?xml version="1.0" standalone="no"?><svg version="1.1" xmlns="http://www.w3.org/2000/svg" width="824.0594689711085" height="275.2446890777018"><svg x="218.22851562500003" y="69.65568168208341" width="102.04123644558865" height="104.84431831791659"><path d="M8,78.84431831791659L38.520618222794326,78.84431831791659Q48.520618222794326,78.84431831791659,48.520618222794326,68.84431831791659L48.520618222794326,36Q48.520618222794326,26,58.520618222794326,26L89.04123644558865,26L58.520618222794326,26Q48.520618222794326,26,48.520618222794326,36L48.520618222794326,68.84431831791659Q48.520618222794326,78.84431831791659,38.520618222794326,78.84431831791659L8,78.84431831791659L8,78.84431831791659M8,74.84431831791659L18,78.84431831791659L8,82.84431831791659M79.04123644558865,22L79.04123644558865,30" fill="none" stroke="#3EA8DE" stroke-width="2"></path><text x="11" y="75.84431831791659" style="font-family: &quot;Open Sans&quot;, sans-serif; font-size: 14px; font-weight: normal; fill: rgb(215, 215, 217);">*</text><text x="78.03635363308865" y="23" style="font-family: &quot;Open Sans&quot;, sans-serif; font-size: 14px; font-weight: normal; fill: rgb(215, 215, 217);">1</text></svg><svg x="521.3278575393387" y="69.65568168208341" width="89.2320997130198" height="116.08900739561841"><path d="M8,26L32.1160498565099,26Q42.1160498565099,26,42.1160498565099,36L42.1160498565099,80.08900739561841Q42.1160498565099,90.08900739561841,52.1160498565099,90.08900739561841L76.2320997130198,90.08900739561841L52.1160498565099,90.08900739561841Q42.1160498565099,90.08900739561841,42.1160498565099,80.08900739561841L42.1160498565099,36Q42.1160498565099,26,32.1160498565099,26L8,26L8,26M18,22L18,30M76.2320997130198,86.08900739561841L66.2320997130198,90.08900739561841L76.2320997130198,94.08900739561841" fill="none" stroke="#3EA8DE" stroke-width="2"></path><text x="11" y="23" style="font-family: &quot;Open Sans&quot;, sans-serif; font-size: 14px; font-weight: normal; fill: rgb(215, 215, 217);">1</text><text x="65.5211622130198" y="87.08900739561841" style="font-family: &quot;Open Sans&quot;, sans-serif; font-size: 14px; font-weight: normal; fill: rgb(215, 215, 217);">*</text></svg><svg x="307.26975207058865" y="46.15568168208341"><rect x="0" y="0" width="222.05810546875" height="33" fill="#222"></rect><text x="10" y="19.75" style="font-family: &quot;Open Sans&quot;, sans-serif; font-size: 13px; font-weight: bold; fill: rgb(255, 255, 255);">artifacts</text></svg><svg x="307.26975207058865" y="79.15568168208341"><rect x="0" y="0" width="222.05810546875" height="33" fill="#4B4C53"></rect><text x="10" y="19.75" style="font-family: &quot;Open Sans&quot;, sans-serif; font-size: 13px; font-weight: bold; fill: rgb(215, 215, 217);">id</text><text x="156.6875" y="19.75" style="font-family: &quot;Open Sans&quot;, sans-serif; font-size: 13px; font-weight: bold; fill: rgb(215, 215, 217);">bigserial</text></svg><svg x="307.26975207058865" y="112.15568168208341"><rect x="0" y="0" width="222.05810546875" height="33" fill="#37383F"></rect><text x="10" y="19.75" style="font-family: &quot;Open Sans&quot;, sans-serif; font-size: 13px; fill: rgb(215, 215, 217);">artifact_type</text><text x="166.29150390625" y="19.75" style="font-family: &quot;Open Sans&quot;, sans-serif; font-size: 13px; fill: rgb(215, 215, 217);">varchar</text></svg><svg x="307.26975207058865" y="145.1556816820834"><rect x="0" y="0" width="222.05810546875" height="33" fill="#37383F"></rect><text x="10" y="19.75" style="font-family: &quot;Open Sans&quot;, sans-serif; font-size: 13px; fill: rgb(215, 215, 217);">artifact_name</text><text x="166.29150390625" y="19.75" style="font-family: &quot;Open Sans&quot;, sans-serif; font-size: 13px; fill: rgb(215, 215, 217);">varchar</text></svg><svg x="307.26975207058865" y="178.1556816820834"><rect x="0" y="0" width="222.05810546875" height="33" fill="#37383F"></rect><text x="10" y="19.75" style="font-family: &quot;Open Sans&quot;, sans-serif; font-size: 13px; fill: rgb(215, 215, 217);">artifact_version</text><text x="166.29150390625" y="19.75" style="font-family: &quot;Open Sans&quot;, sans-serif; font-size: 13px; fill: rgb(215, 215, 217);">varchar</text></svg><svg x="307.26975207058865" y="211.1556816820834"><rect x="0" y="0" width="222.05810546875" height="33" fill="#37383F"></rect><text x="10" y="19.75" style="font-family: &quot;Open Sans&quot;, sans-serif; font-size: 13px; fill: rgb(215, 215, 217);">created_at</text><text x="136.03857421875" y="19.75" style="font-family: &quot;Open Sans&quot;, sans-serif; font-size: 13px; fill: rgb(215, 215, 217);">timestamptz</text></svg><svg x="0" y="0"><rect x="0" y="0" width="226.228515625" height="33" fill="#222"></rect><text x="10" y="19.75" style="font-family: &quot;Open Sans&quot;, sans-serif; font-size: 13px; font-weight: bold; fill: rgb(255, 255, 255);">scans</text></svg><svg x="0" y="33"><rect x="0" y="0" width="226.228515625" height="33" fill="#37383F"></rect><text x="10" y="19.75" style="font-family: &quot;Open Sans&quot;, sans-serif; font-size: 13px; font-weight: bold; fill: rgb(215, 215, 217);">id</text><text x="160.85791015625" y="19.75" style="font-family: &quot;Open Sans&quot;, sans-serif; font-size: 13px; font-weight: bold; fill: rgb(215, 215, 217);">bigserial</text></svg><svg x="0" y="66"><rect x="0" y="0" width="226.228515625" height="33" fill="#37383F"></rect><text x="10" y="19.75" style="font-family: &quot;Open Sans&quot;, sans-serif; font-size: 13px; fill: rgb(215, 215, 217);">created_at</text><text x="140.208984375" y="19.75" style="font-family: &quot;Open Sans&quot;, sans-serif; font-size: 13px; fill: rgb(215, 215, 217);">timestamptz</text></svg><svg x="0" y="99"><rect x="0" y="0" width="226.228515625" height="33" fill="#37383F"></rect><text x="10" y="19.75" style="font-family: &quot;Open Sans&quot;, sans-serif; font-size: 13px; fill: rgb(215, 215, 217);">updated_at</text><text x="140.208984375" y="19.75" style="font-family: &quot;Open Sans&quot;, sans-serif; font-size: 13px; fill: rgb(215, 215, 217);">timestamptz</text></svg><svg x="0" y="132"><rect x="0" y="0" width="226.228515625" height="33" fill="#4B4C53"></rect><text x="10" y="19.75" style="font-family: &quot;Open Sans&quot;, sans-serif; font-size: 13px; fill: rgb(215, 215, 217);">artifact_id</text><text x="182.04638671875" y="19.75" style="font-family: &quot;Open Sans&quot;, sans-serif; font-size: 13px; fill: rgb(215, 215, 217);">bigint</text></svg><svg x="0" y="165"><rect x="0" y="0" width="226.228515625" height="33" fill="#37383F"></rect><text x="10" y="19.75" style="font-family: &quot;Open Sans&quot;, sans-serif; font-size: 13px; fill: rgb(215, 215, 217);">status</text><text x="170.4619140625" y="19.75" style="font-family: &quot;Open Sans&quot;, sans-serif; font-size: 13px; fill: rgb(215, 215, 217);">varchar</text></svg><svg x="0" y="198"><rect x="0" y="0" width="226.228515625" height="33" fill="#37383F"></rect><text x="10" y="19.75" style="font-family: &quot;Open Sans&quot;, sans-serif; font-size: 13px; fill: rgb(215, 215, 217);">report</text><text x="192.8564453125" y="19.75" style="font-family: &quot;Open Sans&quot;, sans-serif; font-size: 13px; fill: rgb(215, 215, 217);">text</text></svg><svg x="0" y="231"><rect x="0" y="0" width="226.228515625" height="33" fill="#37383F"></rect><text x="10" y="19.75" style="font-family: &quot;Open Sans&quot;, sans-serif; font-size: 13px; fill: rgb(215, 215, 217);">job_log</text><text x="192.8564453125" y="19.75" style="font-family: &quot;Open Sans&quot;, sans-serif; font-size: 13px; fill: rgb(215, 215, 217);">text</text></svg><svg x="597.5599572523585" y="44.24468907770182"><rect x="0" y="0" width="221.49951171875" height="33" fill="#222"></rect><text x="10" y="19.75" style="font-family: &quot;Open Sans&quot;, sans-serif; font-size: 13px; font-weight: bold; fill: rgb(255, 255, 255);">sboms</text></svg><svg x="597.5599572523585" y="77.24468907770182"><rect x="0" y="0" width="221.49951171875" height="33" fill="#37383F"></rect><text x="10" y="19.75" style="font-family: &quot;Open Sans&quot;, sans-serif; font-size: 13px; font-weight: bold; fill: rgb(215, 215, 217);">id</text><text x="156.12890625" y="19.75" style="font-family: &quot;Open Sans&quot;, sans-serif; font-size: 13px; font-weight: bold; fill: rgb(215, 215, 217);">bigserial</text></svg><svg x="597.5599572523585" y="110.24468907770182"><rect x="0" y="0" width="221.49951171875" height="33" fill="#37383F"></rect><text x="10" y="19.75" style="font-family: &quot;Open Sans&quot;, sans-serif; font-size: 13px; fill: rgb(215, 215, 217);">created_at</text><text x="135.47998046875" y="19.75" style="font-family: &quot;Open Sans&quot;, sans-serif; font-size: 13px; fill: rgb(215, 215, 217);">timestamptz</text></svg><svg x="597.5599572523585" y="143.24468907770182"><rect x="0" y="0" width="221.49951171875" height="33" fill="#4B4C53"></rect><text x="10" y="19.75" style="font-family: &quot;Open Sans&quot;, sans-serif; font-size: 13px; fill: rgb(215, 215, 217);">artifact_id</text><text x="177.3173828125" y="19.75" style="font-family: &quot;Open Sans&quot;, sans-serif; font-size: 13px; fill: rgb(215, 215, 217);">bigint</text></svg><svg x="597.5599572523585" y="176.24468907770182"><rect x="0" y="0" width="221.49951171875" height="33" fill="#37383F"></rect><text x="10" y="19.75" style="font-family: &quot;Open Sans&quot;, sans-serif; font-size: 13px; fill: rgb(215, 215, 217);">manifest</text><text x="188.12744140625" y="19.75" style="font-family: &quot;Open Sans&quot;, sans-serif; font-size: 13px; fill: rgb(215, 215, 217);">text</text></svg><svg x="597.5599572523585" y="209.24468907770182"><rect x="0" y="0" width="221.49951171875" height="33" fill="#37383F"></rect><text x="10" y="19.75" style="font-family: &quot;Open Sans&quot;, sans-serif; font-size: 13px; fill: rgb(215, 215, 217);">status</text><text x="165.73291015625" y="19.75" style="font-family: &quot;Open Sans&quot;, sans-serif; font-size: 13px; fill: rgb(215, 215, 217);">varchar</text></svg><svg x="597.5599572523585" y="242.24468907770182"><rect x="0" y="0" width="221.49951171875" height="33" fill="#37383F"></rect><text x="10" y="19.75" style="font-family: &quot;Open Sans&quot;, sans-serif; font-size: 13px; fill: rgb(215, 215, 217);">job_log</text><text x="188.12744140625" y="19.75" style="font-family: &quot;Open Sans&quot;, sans-serif; font-size: 13px; fill: rgb(215, 215, 217);">text</text></svg></svg>